<?xml version="1.0" standalone="no"?><!DOCTYPE svg PUBLIC "-//W3C//DTD SVG 1.1//EN" "http://www.w3.org/Graphics/SVG/1.1/DTD/svg11.dtd"><svg class="icon" width="32px" height="32.00px" viewBox="0 0 1024 1024" version="1.1" xmlns="http://www.w3.org/2000/svg"><path fill="#e6e6e6" d="M765.1368425 734.82105219v0.05052656l3.1831575 3.33473719 177.34736813 190.02947344a35.36842125 35.36842125 0 1 1-51.68842032 48.25263187l-177.04421062-189.67578937-3.13263188-3.28421063-2.02105312-2.12210531a69.72631594 69.72631594 0 0 1-1.92-98.52631594 340.54736812 340.54736812 0 0 0 95.34315844-237.01894781c0-188.71578937-153.49894781-342.31578938-342.06315844-342.31578938-188.51368406 0-341.96210531 153.6-341.96210438 342.31578938 0 188.71578937 153.44842125 342.31578938 341.91157875 342.31579031 38.75368406-0.05052656 76.29473719-6.36631594 112.16842125-18.79579031a35.36842125 35.36842125 0 1 1 23.24210438 66.79579031 412.29473719 412.29473719 0 0 1-135.41052563 22.73684156c-227.57052656 0-412.64842125-185.28-412.64842125-413.05263187C50.44210531 218.08842125 235.52 32.80842125 463.14105219 32.80842125c227.62105219 0 412.8 185.28 412.8 413.05263094a411.28421062 411.28421062 0 0 1-114.39157875 285.27157969l3.5368425 3.68842031z"  /></svg>