<?xml version="1.0" standalone="no"?><!DOCTYPE svg PUBLIC "-//W3C//DTD SVG 1.1//EN" "http://www.w3.org/Graphics/SVG/1.1/DTD/svg11.dtd"><svg class="icon" width="64px" height="64.00px" viewBox="0 0 1024 1024" version="1.1" xmlns="http://www.w3.org/2000/svg"><path fill="#333333" d="M856.010815 957.42769L516.388515 761.797444a24.185594 24.185594 0 0 0-24.185594-0.146284L146.290416 957.720258V186.901978a138.286984 138.286984 0 0 1 138.1407-138.091939h433.438999a138.286984 138.286984 0 0 1 138.1407 138.091939v770.525712zM717.870115 0H284.431116A187.145784 187.145784 0 0 0 97.529138 186.901978V999.606196a24.331878 24.331878 0 0 0 36.424675 21.211155l370.244383-209.819778 364.0517 209.722256a24.624445 24.624445 0 0 0 24.380639 0 24.478161 24.478161 0 0 0 12.141558-21.113633V186.901978A187.097023 187.097023 0 0 0 717.870115 0z" /></svg>