<?xml version="1.0" standalone="no"?><!DOCTYPE svg PUBLIC "-//W3C//DTD SVG 1.1//EN" "http://www.w3.org/Graphics/SVG/1.1/DTD/svg11.dtd"><svg class="icon" width="64px" height="50.41px" viewBox="0 0 1300 1024" version="1.1" xmlns="http://www.w3.org/2000/svg"><path fill="#333333" d="M1131.04948555 172.35647685a29.13975263 29.13975263 0 0 1-10.02135147 14.35096318L697.18823808 520.01464854c-41.88535488 37.75033125-109.67541416 37.75033125-149.8581123 1.36212539L131.32245078 194.19912969c-0.04864747 0.94862285-0.04864747 1.8972457-0.04864746 2.87019317V826.97932461c0 36.8017084 30.81808565 67.03602627 68.3495042 67.03602627h867.91708301c37.53141768 0 68.3495042-30.23431787 68.34950419-67.03602627v-30.16134668c0-18.75354697 15.51849961-33.98016269 34.66122539-33.9801627 19.11840205 0 34.63690166 15.22661573 34.63690167 34.00448643v30.16134668c0 74.33312607-61.87940859 134.99635166-137.64763125 134.99635166H199.64763125C123.87940859 961.97567627 62 901.31245068 62 826.97932461V197.04499912C62 122.71187305 123.87940859 62 199.64763125 62h867.917083C1143.33293691 62 1205.2123455 122.71187305 1205.2123455 197.06932285v436.85305752c0 18.7778707-15.51849961 33.98016269-34.63690165 33.9801627-19.14272578 0-34.63690166-15.20229199-34.63690166-33.9801627V197.06932285c0-8.70787266-1.7513042-17.05089023-4.8647338-24.712846z m-36.82603213-36.97197362a68.59274062 68.59274062 0 0 0-26.65873917-5.39985411H199.64763125c-13.54828271 0-26.24523662 3.96475752-36.92332617 10.75106075l2.06751094 1.48374404 427.09926796 336.03145839c16.32118008 14.74014199 42.76100654 14.74014199 60.76051964-1.38644912L1078.0968623 142.21945391c4.74311513-3.72152109 10.3375582-6.0079456 16.12659112-6.85927442z" /></svg>