<?xml version="1.0" standalone="no"?><!DOCTYPE svg PUBLIC "-//W3C//DTD SVG 1.1//EN" "http://www.w3.org/Graphics/SVG/1.1/DTD/svg11.dtd"><svg class="icon" width="64px" height="64.00px" viewBox="0 0 1024 1024" version="1.1" xmlns="http://www.w3.org/2000/svg"><path fill="#333333" d="M831.380211 948.978526a114.957474 114.957474 0 0 0 114.526315-114.526315v-641.347369a114.957474 114.957474 0 0 0-114.526315-114.526316h-641.347369a114.903579 114.903579 0 0 0-114.526316 114.526316v641.347369c0 62.949053 51.577263 114.526316 114.526316 114.526315h641.347369z m0 45.810527h-641.347369a160.714105 160.714105 0 0 1-160.336842-160.336842v-641.347369A160.714105 160.714105 0 0 1 190.032842 32.768h641.347369a160.714105 160.714105 0 0 1 160.336842 160.336842v641.347369a160.714105 160.714105 0 0 1-160.336842 160.336842zM235.843368 353.441684a22.905263 22.905263 0 1 1 0-45.810526h549.726316a22.905263 22.905263 0 0 1 0 45.810526h-549.726316zM235.843368 536.683789a22.905263 22.905263 0 1 1 0-45.810526h366.484211a22.905263 22.905263 0 0 1 0 45.810526h-366.484211zM235.843368 719.925895a22.905263 22.905263 0 0 1 0-45.810527h274.863158a22.905263 22.905263 0 0 1 0 45.810527h-274.863158z" /></svg>