<?xml version="1.0" standalone="no"?><!DOCTYPE svg PUBLIC "-//W3C//DTD SVG 1.1//EN" "http://www.w3.org/Graphics/SVG/1.1/DTD/svg11.dtd"><svg class="icon" width="64px" height="64.00px" viewBox="0 0 1024 1024" version="1.1" xmlns="http://www.w3.org/2000/svg"><path fill="#333333" d="M250.05714313 709.14285688a22.28571469 22.28571469 0 1 1-44.57142844-1e-8V137.87428531A102.44571469 102.44571469 0 0 1 308 35.42857156h557.62285688a104.50285687 104.50285687 0 0 1 104.50285781 104.50285688v634.52571468a196.97142844 196.97142844 0 0 1-196.93714313 196.97142844H134.92571469a22.28571469 22.28571469 0 1 1 0-44.57142844h638.22857062a152.4 152.4 0 0 0 152.36571469-152.4V139.93142844c0-33.08571469-26.84571469-59.93142844-59.93142844-59.93142844H307.96571469c-31.98857156 0-57.87428531 25.92-57.87428625 57.87428531V709.14285688z"  /><path fill="#333333" d="M205.48571469 388.57142844H111.54285687a32.88 32.88 0 0 0-32.91428531 32.91428625v441.94285687a63.42857156 63.42857156 0 0 0 126.85714313 0V388.57142844z m-63.42857157 582.85714312a108 108 0 0 1-108-108V421.48571469A77.45142844 77.45142844 0 0 1 111.54285687 344h116.22857157a22.28571469 22.28571469 0 0 1 22.28571468 22.28571469v497.14285687a108 108 0 0 1-107.99999999 108zM437.80571469 431.42857156a22.28571469 22.28571469 0 1 1 0-44.57142843h342.85714219a22.28571469 22.28571469 0 1 1 0 44.57142843h-342.85714219zM437.80571469 620a22.28571469 22.28571469 0 1 1 0-44.57142844h342.85714219a22.28571469 22.28571469 0 1 1 0 44.57142844h-342.85714219z"  /></svg>